<?xml version="1.0" encoding="UTF-8"?>
<svg version="1.1" xmlns="http://www.w3.org/2000/svg" width="256" height="256">
<path d="M0 0 C0.72068665 -0.00145523 1.44137329 -0.00291046 2.18389893 -0.00440979 C4.49374938 -0.00661779 6.80344586 -0.00042739 9.11328125 0.0078125 C9.91839142 0.00969574 10.72350159 0.01157898 11.55300903 0.01351929 C23.36644596 0.04546429 35.18063977 0.14875715 46.99160767 0.39727783 C48.54472857 0.42873395 50.09794055 0.45603288 51.6512146 0.47869873 C70.69314387 0.77337259 88.3351136 4.30155402 104.42578125 15.1328125 C104.97000732 15.48158447 105.5142334 15.83035645 106.07495117 16.18969727 C110.63952441 19.23834221 113.80842161 22.61781358 116.98828125 27.0703125 C117.45935303 27.72346436 117.9304248 28.37661621 118.41577148 29.04956055 C129.5965008 45.06415801 133.65211842 65.26560707 130.67333984 84.56152344 C128.59250368 95.78113023 124.34676051 106.95896315 117.42578125 116.1328125 C116.76578125 116.1328125 116.10578125 116.1328125 115.42578125 116.1328125 C115.19117188 116.70515625 114.9565625 117.2775 114.71484375 117.8671875 C108.16158121 129.38504287 90.96449776 136.13384405 78.80078125 139.5078125 C60.1635228 143.84152257 41.51496439 142.86701185 22.42578125 142.1328125 C22.42578125 173.8128125 22.42578125 205.4928125 22.42578125 238.1328125 C6.91578125 238.1328125 -8.59421875 238.1328125 -24.57421875 238.1328125 C-24.57421875 159.9228125 -24.57421875 81.7128125 -24.57421875 1.1328125 C-6.54198347 0.0057978 -6.54198347 0.0057978 0 0 Z M26.42578125 63.1328125 C26.42578125 74.6828125 26.42578125 86.2328125 26.42578125 98.1328125 C31.68515625 98.1946875 36.94453125 98.2565625 42.36328125 98.3203125 C44.00417725 98.34762451 45.64507324 98.37493652 47.33569336 98.40307617 C58.19505762 98.4713492 58.19505762 98.4713492 68.42578125 95.1328125 C71.69540264 89.92492787 71.86033723 84.39263626 71 78.42578125 C69.58405055 72.77161577 66.0533566 69.38321098 61.42578125 66.1328125 C50.09917351 62.26589419 38.22047314 62.88878439 26.42578125 63.1328125 Z " fill="#E6E8E5" transform="translate(89.57421875,7.8671875)"/>
<path d="M0 0 C6.249375 -0.061875 12.49875 -0.12375 18.9375 -0.1875 C20.89163818 -0.21481201 22.84577637 -0.24212402 24.85913086 -0.27026367 C26.4360289 -0.27903871 28.01293383 -0.28668023 29.58984375 -0.29296875 C30.38588013 -0.30831665 31.1819165 -0.32366455 32.0020752 -0.33947754 C40.60482103 -0.34342194 49.45579028 2.19718223 56 8 C61.51160174 15.645125 62.69234734 22.72254562 62 32 C60.79316567 38.0151664 58.31822688 43.56846688 54 48 C51.1875 49.4375 51.1875 49.4375 49 50 C49 50.66 49 51.32 49 52 C47.68 51.67 46.36 51.34 45 51 C45.66 50.67 46.32 50.34 47 50 C49.1270858 43.84264637 49.48451742 38.3759489 48 32 C45.8935649 28.00503688 43.80899272 25.38464857 40 23 C31.68771398 20.62366411 23.61786473 19.77019027 15 20 C11.7 19.67 8.4 19.34 5 19 C5 30.55 5 42.1 5 54 C14.9 54 24.8 54 35 54 C35 54.33 35 54.66 35 55 C23.45 55 11.9 55 0 55 C0 36.85 0 18.7 0 0 Z " fill="#B8C0B7" transform="translate(111,52)"/>
<path d="M0 0 C0.99 0.495 0.99 0.495 2 1 C2 1.99 2 2.98 2 4 C5.96 3.34 9.92 2.68 14 2 C14 2.66 14 3.32 14 4 C14.99 4.33 15.98 4.66 17 5 C16.67 5.66 16.34 6.32 16 7 C12.04 6.67 8.08 6.34 4 6 C4 17.55 4 29.1 4 41 C13.9 41 23.8 41 34 41 C34 41.33 34 41.66 34 42 C22.78 42 11.56 42 0 42 C0 28.14 0 14.28 0 0 Z " fill="#8CA987" transform="translate(112,65)"/>
<path d="M0 0 C0 0.66 0 1.32 0 2 C0.99 2.33 1.98 2.66 3 3 C2.67 3.66 2.34 4.32 2 5 C-2.29 4.67 -6.58 4.34 -11 4 C-11 3.34 -11 2.68 -11 2 C-9.5422647 1.664061 -8.08378894 1.33133376 -6.625 1 C-5.40683594 0.7215625 -5.40683594 0.7215625 -4.1640625 0.4375 C-2 0 -2 0 0 0 Z " fill="#8BA288" transform="translate(126,67)"/>
<path d="M0 0 C0.66 0 1.32 0 2 0 C1.67 0.66 1.34 1.32 1 2 C0.67 1.34 0.34 0.68 0 0 Z " fill="#288902" transform="translate(0,0)"/>
<path d="M0 0 C2 1 2 1 2 1 Z " fill="#228100" transform="translate(0,255)"/>
<path d="" fill="#1C7202" transform="translate(0,0)"/>
<path d="" fill="#39A308" transform="translate(0,0)"/>
<path d="" fill="#1F8003" transform="translate(0,0)"/>
<path d="" fill="#389F05" transform="translate(0,0)"/>
</svg>
